PathFileType	4	(X/Y/Z)	3_coords_data.trc
DataRate	CameraRate	NumFrames	NumMarkers	Units	OrigDataRate	OrigDataStartFrame	OrigNumFrames
30.0	30.0	9	21	m	30.0	51	81
Frame#	Time	THUMB_TIP	THUMB_IP	THUMB_MCP	THUMB_CMC	INDEX_TIP	INDEX_DIP	INDEX_PIP	INDEX_MCP	MIDDLE_TIP	MIDDLE_DIP	MIDDLE_PIP	MIDDLE_MCP	RING_TIP	RING_DIP	RING_PIP	RING_MCP	PINKY_TIP	PINKY_DIP	PINKY_PIP	PINKY_MCP	WRIST
X1	Y1	Z1	X2	Y2	Z2	X3	Y3	Z3	X4	Y4	Z4	X5	Y5	Z5	X6	Y6	Z6	X7	Y7	Z7	X8	Y8	Z8	X9	Y9	Z9	X10	Y10	Z10	X11	Y11	Z11	X12	Y12	Z12	X13	Y13	Z13	X14	Y14	Z14	X15	Y15	Z15	X16	Y16	Z16	X17	Y17	Z17	X18	Y18	Z18	X19	Y19	Z19	X20	Y20	Z20	X21	Y21	Z21
50	1.6666666666666667	-0.16055499267578124	-0.09781109619140625	0.9132160034179687	-0.16468299865722658	-0.08150749969482422	0.93722900390625	-0.16853199768066407	-0.06990779876708984	0.9662260131835938	-0.1676060028076172	-0.043158199310302736	0.9916069946289062	-0.1142310028076172	-0.036920101165771484	0.9053720092773437	-0.13399899291992187	-0.04149089813232422	0.8993699951171875	-0.15715800476074218	-0.04595930099487305	0.9036510009765625	-0.18023500061035155	-0.04879059982299805	0.9366619873046875	-0.11149099731445312	-0.01905179977416992	0.9023820190429688	-0.13157499694824218	-0.020793500900268554	0.8972100219726562	-0.15897999572753907	-0.02402939987182617	0.9018369750976563	-0.18695199584960936	-0.02690730094909668	0.9358109741210937	-0.12605899810791016	-0.0013037099838256831	0.9191539916992187	-0.14241200256347655	0.000696512997150421	0.9087750244140625	-0.1683179931640625	-0.001017089962959289	0.9086680297851563	-0.18664300537109374	-0.00723045015335083	0.9414539794921875	-0.13371200561523439	0.010290499687194823	0.9349010009765625	-0.14688400268554688	0.015834099769592287	0.9272659912109374	-0.16663800048828126	0.0170492000579834	0.9276090087890625	-0.1839989929199219	0.011092499732971191	0.9503829956054688	-0.18801600646972655	-0.02055430030822754	1.0184400024414062
51	1.7	-0.15640199279785155	-0.09537889862060547	0.9128800048828125	-0.1611540069580078	-0.07985900115966797	0.9369340209960938	-0.16607200622558593	-0.06832389831542969	0.9663389892578125	-0.16721499633789064	-0.042686798095703124	0.9919829711914062	-0.11634600067138672	-0.03815760040283203	0.8873980102539063	-0.13740699768066406	-0.04280960083007813	0.8907969970703125	-0.15811000061035158	-0.04652989959716797	0.901885009765625	-0.17818099975585938	-0.04810509872436523	0.9360880126953125	-0.11473799896240235	-0.01745359992980957	0.8824299926757813	-0.13633399963378906	-0.02000550079345703	0.8868259887695312	-0.16071200561523438	-0.0233843994140625	0.9001099853515625	-0.1843769989013672	-0.02626169967651367	0.9350469970703125	-0.1266070022583008	0.0025844600200653073	0.9017219848632813	-0.14672200012207032	0.002495039939880371	0.8992990112304687	-0.17095199584960938	-0.0005762599706649781	0.9065549926757812	-0.18533399963378908	-0.006986989974975586	0.941197021484375	-0.13589100646972657	0.0158080997467041	0.9206090087890625	-0.15257699584960938	0.019064300537109374	0.9182960205078124	-0.16980000305175783	0.018329700469970702	0.9243619995117187	-0.18213200378417968	0.011467300415039062	0.9501199951171875	-0.18839100646972656	-0.02040769958496094	1.0184000244140625
52	1.7333333333333334	-0.1536699981689453	-0.09432510375976562	0.913051025390625	-0.15917100524902345	-0.07927629852294922	0.9370009765625	-0.16399000549316406	-0.06816220092773438	0.96639599609375	-0.1666529998779297	-0.042566600799560546	0.9924929809570312	-0.1197770004272461	-0.0392489013671875	0.8782919921875	-0.14011199951171874	-0.04362160110473633	0.886822021484375	-0.15882000732421875	-0.046827098846435544	0.9008619995117187	-0.176072998046875	-0.04753020095825195	0.9355009765625	-0.11964800262451172	-0.01656089973449707	0.8722340087890625	-0.13983099365234375	-0.019460599899291994	0.8820159912109375	-0.16231300354003905	-0.022854299545288087	0.8986270141601562	-0.18260000610351562	-0.025874500274658204	0.9348469848632812	-0.12888499450683594	0.004242179870605468	0.8929459838867188	-0.14912699890136719	0.0030868899822235098	0.8957109985351562	-0.17210499572753907	-0.0005557810068130491	0.9059979858398437	-0.1856130065917969	-0.0069933199882507326	0.9418209838867188	-0.1373059997558594	0.01832990074157715	0.9137009887695312	-0.154947998046875	0.020203100204467774	0.9151500244140625	-0.17125	0.018681999206542968	0.9236439819335938	-0.18098899841308594	0.011667099952697754	0.9502100219726562	-0.18858399963378905	-0.020448099136352538	1.0183099975585939
53	1.7666666666666666	-0.1530800018310547	-0.09408560180664062	0.9131119995117187	-0.15875999450683595	-0.0790863037109375	0.9371619873046875	-0.16400199890136719	-0.06823259735107422	0.96647802734375	-0.16691299438476562	-0.04242369842529297	0.9926380004882812	-0.12298799896240234	-0.040439701080322264	0.8732940063476563	-0.14228399658203125	-0.0444822998046875	0.8847319946289063	-0.15984700012207032	-0.04718820190429687	0.9003369750976562	-0.17592100524902343	-0.047333099365234374	0.9353060302734375	-0.12287999725341797	-0.016748100280761718	0.867572021484375	-0.14191799926757812	-0.019573900222778322	0.8801290283203125	-0.1635480041503906	-0.02282010078430176	0.8982680053710937	-0.18241299438476563	-0.025606399536132814	0.9347210083007812	-0.1307220001220703	0.00452111005783081	0.888427978515625	-0.15093699645996095	0.0030449700355529782	0.8931380004882813	-0.17252499389648437	-0.000609534978866577	0.9057479858398437	-0.1853520050048828	-0.00692628002166748	0.9419710083007813	-0.13936099243164063	0.019708599090576172	0.908739013671875	-0.15647700500488282	0.020754199981689453	0.913333984375	-0.17202999877929687	0.018719499588012695	0.9233980102539062	-0.18091799926757812	0.011711099624633788	0.9504459838867187	-0.18855799865722656	-0.020528600692749022	1.0183900146484375
54	1.8	-0.15261599731445313	-0.09387879943847656	0.91310302734375	-0.15856199645996094	-0.07901329803466797	0.9372100219726562	-0.16366799926757813	-0.06823470306396484	0.9665250244140625	-0.16704400634765626	-0.04251269912719727	0.9929439697265625	-0.12491100311279296	-0.041033199310302734	0.8710050048828125	-0.14353399658203125	-0.04467620086669922	0.8835640258789063	-0.1601929931640625	-0.047165298461914064	0.9004249877929688	-0.1759739990234375	-0.04717739868164063	0.935114013671875	-0.12492400360107422	-0.016592500686645507	0.8651179809570313	-0.14331300354003906	-0.019340400695800782	0.87881201171875	-0.164322998046875	-0.022568599700927734	0.8979030151367188	-0.18192500305175782	-0.025527999877929686	0.9344940185546875	-0.13245399475097655	0.004812300205230713	0.8856430053710938	-0.15222599792480468	0.003234740018844604	0.8920999755859375	-0.17287699890136718	-0.00058975201845169	0.9058380126953125	-0.18500799560546874	-0.00686313009262085	0.941718017578125	-0.14094000244140625	0.020646699905395506	0.9060809936523437	-0.15794700622558594	0.02115519905090332	0.9123070068359375	-0.17236199951171874	0.01885219955444336	0.9232739868164063	-0.18091200256347656	0.011610400199890137	0.950447021484375	-0.18875100708007814	-0.02052939987182617	1.0187899780273437
55	1.8333333333333333	-0.15228999328613282	-0.09363230133056641	0.9131519775390625	-0.158427001953125	-0.07885330200195312	0.9372990112304688	-0.16408099365234374	-0.06795929718017578	0.96672900390625	-0.16710400390625	-0.04248320007324219	0.993155029296875	-0.12616200256347657	-0.0410968017578125	0.8695369873046875	-0.1440489959716797	-0.04459159851074219	0.883135009765625	-0.16076400756835937	-0.04699169921875	0.9000809936523437	-0.17586300659179688	-0.04700080108642578	0.9350919799804688	-0.12598899841308595	-0.016171899795532227	0.8642360229492188	-0.14404600524902345	-0.01897330093383789	0.8783980102539063	-0.16475799560546875	-0.022228700637817383	0.8979739990234376	-0.18190299987792968	-0.02543680000305176	0.9347490234375	-0.13325300598144532	0.005254340171813965	0.8843109741210937	-0.15274699401855468	0.003504600048065185	0.8916409912109375	-0.1731940002441406	-0.00036633199453353806	0.905969970703125	-0.18432899475097655	-0.0067114300727844235	0.9422789916992188	-0.14226300048828125	0.021463499069213868	0.9044719848632813	-0.15883099365234374	0.021649499893188477	0.9117490234375	-0.172927001953125	0.019019100189208986	0.9235159912109375	-0.18105299377441406	0.011690699577331543	0.9508579711914062	-0.18879600524902343	-0.02050029945373535	1.0190999755859376
56	1.8666666666666667	-0.15206700134277343	-0.09334609985351562	0.9133209838867188	-0.15821400451660156	-0.07860559844970703	0.93747900390625	-0.16394400024414063	-0.0677865982055664	0.966875	-0.16698199462890626	-0.04236629867553711	0.9932960205078125	-0.12761399841308593	-0.04144430160522461	0.8681060180664063	-0.14498599243164062	-0.044698799133300784	0.8825260009765625	-0.16077200317382812	-0.04700970077514648	0.9005780029296875	-0.1760749969482422	-0.04678419876098633	0.9354019775390625	-0.12738999938964843	-0.015861300468444823	0.8630349731445313	-0.14488999938964844	-0.018671600341796876	0.8778980102539062	-0.16546600341796874	-0.021982200622558595	0.898156005859375	-0.18195799255371095	-0.025299400329589845	0.935177001953125	-0.13461500549316407	0.005647900104522705	0.8826939697265626	-0.15361300659179689	0.003775650024414062	0.8909949951171875	-0.17343299865722656	-0.00011662399768829301	0.906281982421875	-0.18505099487304688	-0.006703849792480469	0.9427459716796875	-0.14360400390625	0.022437400817871093	0.902969970703125	-0.15989700317382813	0.022121299743652345	0.9113090209960938	-0.1729290008544922	0.01932110023498535	0.9236220092773437	-0.18028199768066405	0.011893600463867187	0.950989013671875	-0.18737899780273437	-0.02064240074157715	1.0187000122070313
57	1.9	-0.15177499389648438	-0.09309130096435547	0.91360400390625	-0.15780999755859376	-0.07840589904785156	0.9377789916992187	-0.16435499572753906	-0.06741970062255859	0.9673460083007812	-0.16686900329589843	-0.042332199096679686	0.9934819946289063	-0.1293560028076172	-0.041611801147460936	0.8668250122070312	-0.14599299621582032	-0.04470009994506836	0.8818699951171876	-0.16148500061035156	-0.04693389892578125	0.9002360229492188	-0.17575399780273437	-0.04655630111694336	0.9357849731445312	-0.129125	-0.01565190029144287	0.8617360229492188	-0.14610200500488282	-0.018383399963378906	0.8774959716796875	-0.1660659942626953	-0.021714399337768555	0.898218994140625	-0.1810760040283203	-0.02499090003967285	0.9352479858398437	-0.13596000671386718	0.006084919929504394	0.8815999755859375	-0.15437899780273437	0.004072199821472168	0.8907130126953124	-0.17389999389648436	0.00017495200037956202	0.9063510131835938	-0.18363800048828124	-0.00637076997756958	0.9427069702148437	-0.14475599670410155	0.023182899475097656	0.902083984375	-0.16090899658203126	0.022602300643920898	0.9111309814453125	-0.173927001953125	0.01946649932861328	0.9240040283203125	-0.1797530059814453	0.012053899765014649	0.951322021484375	-0.1886959991455078	-0.020289499282836913	1.0193900146484376
58	1.9333333333333333	-0.15174800109863282	-0.09267120361328125	0.9137139892578126	-0.15806300354003905	-0.07802690124511719	0.9379190063476562	-0.163781005859375	-0.0670895004272461	0.9673870239257812	-0.1667239990234375	-0.041947200775146486	0.9938359985351563	-0.13080799865722656	-0.04155070114135742	0.8659619750976563	-0.14686399841308595	-0.04458190155029297	0.8815850219726562	-0.16228799438476563	-0.046571201324462894	0.90025	-0.17530499267578126	-0.04618199920654297	0.9356090087890625	-0.13080299377441407	-0.01542430019378662	0.8607739868164063	-0.14709500122070313	-0.018131399154663087	0.8771909790039063	-0.16675	-0.02147209930419922	0.898406982421875	-0.18179299926757814	-0.024688600540161133	0.9357730102539062	-0.13685400390625	0.00656072998046875	0.8808920288085937	-0.15493800354003906	0.004509749889373779	0.8906270141601562	-0.1742449951171875	0.0004944680035114281	0.9067449951171875	-0.1839530029296875	-0.006083990097045898	0.9431530151367188	-0.14596800231933593	0.02395280075073242	0.901468994140625	-0.1615010070800781	0.023154399871826173	0.9111090087890625	-0.17417100524902343	0.019965099334716796	0.9242730102539063	-0.18016600036621094	0.012196999549865722	0.9517349853515625	-0.18725300598144531	-0.020332300186157226	1.0190599975585937
